<mxfile host="app.diagrams.net" modified="2020-08-04T22:35:51.028Z" agent="5.0 (Windows)" etag="VATIYa5JowFUCBLnRamk" version="13.5.9" type="github">
  <diagram name="Page-1" id="c4acf3e9-155e-7222-9cf6-157b1a14988f">
    <mxGraphModel dx="723" dy="376" grid="1" gridSize="10" guides="1" tooltips="1" connect="1" arrows="1" fold="1" page="1" pageScale="1" pageWidth="850" pageHeight="1100" background="#ffffff" math="0" shadow="0">
      <root>
        <mxCell id="0" />
        <mxCell id="1" parent="0" />
        <mxCell id="rx1_sFjDLREM_CoGC2wl-27" style="edgeStyle=orthogonalEdgeStyle;rounded=0;orthogonalLoop=1;jettySize=auto;html=1;entryX=0.026;entryY=0.051;entryDx=0;entryDy=0;entryPerimeter=0;" edge="1" parent="1" source="rx1_sFjDLREM_CoGC2wl-1" target="rx1_sFjDLREM_CoGC2wl-24">
          <mxGeometry relative="1" as="geometry" />
        </mxCell>
        <mxCell id="rx1_sFjDLREM_CoGC2wl-28" style="edgeStyle=orthogonalEdgeStyle;rounded=0;orthogonalLoop=1;jettySize=auto;html=1;entryX=1.008;entryY=0.051;entryDx=0;entryDy=0;entryPerimeter=0;" edge="1" parent="1" source="rx1_sFjDLREM_CoGC2wl-5" target="rx1_sFjDLREM_CoGC2wl-24">
          <mxGeometry relative="1" as="geometry" />
        </mxCell>
        <mxCell id="rx1_sFjDLREM_CoGC2wl-5" value="Peliculas" style="swimlane;fontStyle=0;childLayout=stackLayout;horizontal=1;startSize=26;fillColor=none;horizontalStack=0;resizeParent=1;resizeParentMax=0;resizeLast=0;collapsible=1;marginBottom=0;" vertex="1" parent="1">
          <mxGeometry x="400" y="180" width="140" height="130" as="geometry" />
        </mxCell>
        <mxCell id="rx1_sFjDLREM_CoGC2wl-6" value="Marca - String" style="text;strokeColor=none;fillColor=none;align=left;verticalAlign=top;spacingLeft=4;spacingRight=4;overflow=hidden;rotatable=0;points=[[0,0.5],[1,0.5]];portConstraint=eastwest;" vertex="1" parent="rx1_sFjDLREM_CoGC2wl-5">
          <mxGeometry y="26" width="140" height="26" as="geometry" />
        </mxCell>
        <mxCell id="rx1_sFjDLREM_CoGC2wl-7" value="Nombre - String" style="text;strokeColor=none;fillColor=none;align=left;verticalAlign=top;spacingLeft=4;spacingRight=4;overflow=hidden;rotatable=0;points=[[0,0.5],[1,0.5]];portConstraint=eastwest;" vertex="1" parent="rx1_sFjDLREM_CoGC2wl-5">
          <mxGeometry y="52" width="140" height="26" as="geometry" />
        </mxCell>
        <mxCell id="rx1_sFjDLREM_CoGC2wl-8" value="Sensibilidad ISO - Int" style="text;strokeColor=none;fillColor=none;align=left;verticalAlign=top;spacingLeft=4;spacingRight=4;overflow=hidden;rotatable=0;points=[[0,0.5],[1,0.5]];portConstraint=eastwest;" vertex="1" parent="rx1_sFjDLREM_CoGC2wl-5">
          <mxGeometry y="78" width="140" height="26" as="geometry" />
        </mxCell>
        <mxCell id="rx1_sFjDLREM_CoGC2wl-10" value="Formato - Int" style="text;strokeColor=none;fillColor=none;align=left;verticalAlign=top;spacingLeft=4;spacingRight=4;overflow=hidden;rotatable=0;points=[[0,0.5],[1,0.5]];portConstraint=eastwest;" vertex="1" parent="rx1_sFjDLREM_CoGC2wl-5">
          <mxGeometry y="104" width="140" height="26" as="geometry" />
        </mxCell>
        <mxCell id="rx1_sFjDLREM_CoGC2wl-23" value="Marca" style="swimlane;fontStyle=0;childLayout=stackLayout;horizontal=1;startSize=26;fillColor=none;horizontalStack=0;resizeParent=1;resizeParentMax=0;resizeLast=0;collapsible=1;marginBottom=0;" vertex="1" parent="1">
          <mxGeometry x="250" y="370" width="140" height="52" as="geometry" />
        </mxCell>
        <mxCell id="rx1_sFjDLREM_CoGC2wl-24" value="Direccion - String" style="text;strokeColor=none;fillColor=none;align=left;verticalAlign=top;spacingLeft=4;spacingRight=4;overflow=hidden;rotatable=0;points=[[0,0.5],[1,0.5]];portConstraint=eastwest;" vertex="1" parent="rx1_sFjDLREM_CoGC2wl-23">
          <mxGeometry y="26" width="140" height="26" as="geometry" />
        </mxCell>
        <mxCell id="rx1_sFjDLREM_CoGC2wl-46" style="edgeStyle=orthogonalEdgeStyle;rounded=0;orthogonalLoop=1;jettySize=auto;html=1;" edge="1" parent="1" source="rx1_sFjDLREM_CoGC2wl-1" target="rx1_sFjDLREM_CoGC2wl-37">
          <mxGeometry relative="1" as="geometry" />
        </mxCell>
        <mxCell id="rx1_sFjDLREM_CoGC2wl-1" value="Camaras" style="swimlane;fontStyle=0;childLayout=stackLayout;horizontal=1;startSize=26;fillColor=none;horizontalStack=0;resizeParent=1;resizeParentMax=0;resizeLast=0;collapsible=1;marginBottom=0;" vertex="1" parent="1">
          <mxGeometry x="90" y="180" width="140" height="130" as="geometry" />
        </mxCell>
        <mxCell id="rx1_sFjDLREM_CoGC2wl-2" value="Marca - String" style="text;strokeColor=none;fillColor=none;align=left;verticalAlign=top;spacingLeft=4;spacingRight=4;overflow=hidden;rotatable=0;points=[[0,0.5],[1,0.5]];portConstraint=eastwest;" vertex="1" parent="rx1_sFjDLREM_CoGC2wl-1">
          <mxGeometry y="26" width="140" height="26" as="geometry" />
        </mxCell>
        <mxCell id="rx1_sFjDLREM_CoGC2wl-3" value="Modelo - String" style="text;strokeColor=none;fillColor=none;align=left;verticalAlign=top;spacingLeft=4;spacingRight=4;overflow=hidden;rotatable=0;points=[[0,0.5],[1,0.5]];portConstraint=eastwest;" vertex="1" parent="rx1_sFjDLREM_CoGC2wl-1">
          <mxGeometry y="52" width="140" height="26" as="geometry" />
        </mxCell>
        <mxCell id="rx1_sFjDLREM_CoGC2wl-4" value="Soporte Flash - Bool" style="text;strokeColor=none;fillColor=none;align=left;verticalAlign=top;spacingLeft=4;spacingRight=4;overflow=hidden;rotatable=0;points=[[0,0.5],[1,0.5]];portConstraint=eastwest;" vertex="1" parent="rx1_sFjDLREM_CoGC2wl-1">
          <mxGeometry y="78" width="140" height="26" as="geometry" />
        </mxCell>
        <mxCell id="rx1_sFjDLREM_CoGC2wl-22" value="Status - String" style="text;strokeColor=none;fillColor=none;align=left;verticalAlign=top;spacingLeft=4;spacingRight=4;overflow=hidden;rotatable=0;points=[[0,0.5],[1,0.5]];portConstraint=eastwest;" vertex="1" parent="rx1_sFjDLREM_CoGC2wl-1">
          <mxGeometry y="104" width="140" height="26" as="geometry" />
        </mxCell>
        <mxCell id="rx1_sFjDLREM_CoGC2wl-43" style="edgeStyle=orthogonalEdgeStyle;rounded=0;orthogonalLoop=1;jettySize=auto;html=1;entryX=0;entryY=0.5;entryDx=0;entryDy=0;" edge="1" parent="1" source="rx1_sFjDLREM_CoGC2wl-3" target="rx1_sFjDLREM_CoGC2wl-7">
          <mxGeometry relative="1" as="geometry" />
        </mxCell>
        <mxCell id="rx1_sFjDLREM_CoGC2wl-36" value="Cliente" style="swimlane;fontStyle=0;childLayout=stackLayout;horizontal=1;startSize=26;fillColor=none;horizontalStack=0;resizeParent=1;resizeParentMax=0;resizeLast=0;collapsible=1;marginBottom=0;" vertex="1" parent="1">
          <mxGeometry x="240" y="40" width="140" height="156" as="geometry" />
        </mxCell>
        <mxCell id="rx1_sFjDLREM_CoGC2wl-37" value="Nombre - String" style="text;strokeColor=none;fillColor=none;align=left;verticalAlign=top;spacingLeft=4;spacingRight=4;overflow=hidden;rotatable=0;points=[[0,0.5],[1,0.5]];portConstraint=eastwest;" vertex="1" parent="rx1_sFjDLREM_CoGC2wl-36">
          <mxGeometry y="26" width="140" height="26" as="geometry" />
        </mxCell>
        <mxCell id="rx1_sFjDLREM_CoGC2wl-38" value="Tiene Cam - Bool" style="text;strokeColor=none;fillColor=none;align=left;verticalAlign=top;spacingLeft=4;spacingRight=4;overflow=hidden;rotatable=0;points=[[0,0.5],[1,0.5]];portConstraint=eastwest;" vertex="1" parent="rx1_sFjDLREM_CoGC2wl-36">
          <mxGeometry y="52" width="140" height="26" as="geometry" />
        </mxCell>
        <mxCell id="rx1_sFjDLREM_CoGC2wl-39" value="Ultimo Alquiler - Date" style="text;strokeColor=none;fillColor=none;align=left;verticalAlign=top;spacingLeft=4;spacingRight=4;overflow=hidden;rotatable=0;points=[[0,0.5],[1,0.5]];portConstraint=eastwest;" vertex="1" parent="rx1_sFjDLREM_CoGC2wl-36">
          <mxGeometry y="78" width="140" height="26" as="geometry" />
        </mxCell>
        <mxCell id="rx1_sFjDLREM_CoGC2wl-41" value="Tiene Multa - Bool" style="text;strokeColor=none;fillColor=none;align=left;verticalAlign=top;spacingLeft=4;spacingRight=4;overflow=hidden;rotatable=0;points=[[0,0.5],[1,0.5]];portConstraint=eastwest;" vertex="1" parent="rx1_sFjDLREM_CoGC2wl-36">
          <mxGeometry y="104" width="140" height="26" as="geometry" />
        </mxCell>
        <mxCell id="rx1_sFjDLREM_CoGC2wl-42" value="Puede Alquilar - Bool" style="text;strokeColor=none;fillColor=none;align=left;verticalAlign=top;spacingLeft=4;spacingRight=4;overflow=hidden;rotatable=0;points=[[0,0.5],[1,0.5]];portConstraint=eastwest;" vertex="1" parent="rx1_sFjDLREM_CoGC2wl-36">
          <mxGeometry y="130" width="140" height="26" as="geometry" />
        </mxCell>
      </root>
    </mxGraphModel>
  </diagram>
</mxfile>
